<svg viewBox="0 0 200 200" xmlns="http://www.w3.org/2000/svg">
  <defs>
    <linearGradient id="grad1" x1="0%" y1="0%" x2="100%" y2="100%">
      <stop offset="0%" style="stop-color:#0066cc;stop-opacity:1" />
      <stop offset="100%" style="stop-color:#1a4d99;stop-opacity:1" />
    </linearGradient>
    <linearGradient id="grad2" x1="0%" y1="0%" x2="100%" y2="100%">
      <stop offset="0%" style="stop-color:#00a86b;stop-opacity:1" />
      <stop offset="100%" style="stop-color:#008856;stop-opacity:1" />
    </linearGradient>
  </defs>
  
  <!-- Blue swoosh bottom -->
  <path d="M 30 140 Q 80 120 160 80 Q 170 75 175 90 Q 100 130 40 155 Z" fill="url(#grad1)"/>
  
  <!-- Green wing/body -->
  <path d="M 50 90 Q 90 60 140 50 L 145 55 Q 100 75 60 100 Z" fill="url(#grad2)"/>
  
  <!-- Green swoosh top -->
  <path d="M 60 100 Q 110 70 155 60 Q 165 58 160 70 Q 110 85 70 110 Z" fill="url(#grad2)" opacity="0.8"/>
  
  <!-- Airplane nose/point -->
  <path d="M 155 50 L 170 45 L 165 65 Z" fill="url(#grad1)"/>
  
  <!-- Light accent line -->
  <path d="M 70 95 Q 110 75 145 65" stroke="rgba(255,255,255,0.3)" stroke-width="2" fill="none" stroke-linecap="round"/>
</svg>